<?xml version="1.0" encoding="UTF-8"?>
<svg id="Layer_1" data-name="Layer 1" xmlns="http://www.w3.org/2000/svg" viewBox="0 0 175 133">
  <defs>
    <style>
      .cls-1 {
        fill: none;
        stroke: #303f89;
        stroke-linecap: round;
        stroke-linejoin: round;
        stroke-width: 3px;
      }

      .cls-2 {
        fill: #fff;
      }
    </style>
  </defs>
  <path class="cls-2" d="M39.72,133h95.57c15.14-13.29,24.72-32.77,24.72-54.5,0-40.04-32.46-72.5-72.5-72.5S15,38.46,15,78.5c0,21.73,9.57,41.21,24.72,54.5Z"/>
  <g>
    <circle class="cls-1" cx="87.5" cy="49.06" r="12.68"/>
    <path class="cls-1" d="M100.18,112.48h-21.74c-4,0-7.25,3.25-7.25,7.25s3.25,7.25,7.25,7.25h35.9c3.88,0,7.33-2.9,7.57-6.78.18-2.76-1.21-5.21-3.35-6.57-3.03-1.94-9.1-5.81-14.41-9.19-2.27-1.45-3.53-4.04-3.29-6.72l1.27-13.95,5.11,10.21c1.23,2.46,3.74,4.01,6.48,4.01h13.64c3,0,5.44-2.43,5.44-5.44h0c0-3-2.43-5.44-5.44-5.44h-11.46c-.74,0-1.41-.45-1.68-1.14l-4.95-12.38c-1.24-3.11-3.83-5.54-7.06-6.41-9-2.42-20.42-2.42-29.42,0-3.23.87-5.82,3.29-7.06,6.4-1.66,4.15-3.99,9.97-4.96,12.39-.28.69-.94,1.14-1.68,1.14h-11.46c-3,0-5.44,2.43-5.44,5.44h0c0,3,2.43,5.44,5.44,5.44h13.64c2.75,0,5.25-1.55,6.48-4.01l5.11-10.21,1.27,13.96c.24,2.68-1.02,5.26-3.29,6.71-5.31,3.39-11.38,7.26-14.41,9.19-2.14,1.36-3.52,3.81-3.35,6.57.25,3.88,3.69,6.78,7.57,6.78h5.1"/>
    <g>
      <line class="cls-1" x1="53.66" y1="56.18" x2="45.15" y2="53.26"/>
      <line class="cls-1" x1="60.59" y1="44.9" x2="53.65" y2="39.43"/>
      <line class="cls-1" x1="114.41" y1="44.9" x2="121.35" y2="39.43"/>
      <line class="cls-1" x1="121.34" y1="56.18" x2="129.85" y2="53.26"/>
      <line class="cls-1" x1="42.2" y1="68.99" x2="51.26" y2="68.99"/>
      <line class="cls-1" x1="123.74" y1="68.99" x2="132.8" y2="68.99"/>
    </g>
  </g>
</svg>