<?xml version="1.0" encoding="UTF-8"?>
<svg id="Layer_1" data-name="Layer 1" xmlns="http://www.w3.org/2000/svg" viewBox="0 0 175 133">
  <defs>
    <style>
      .cls-1 {
        stroke-linecap: round;
      }

      .cls-1, .cls-2 {
        fill: none;
        stroke: #303f89;
        stroke-linejoin: round;
        stroke-width: 3px;
      }

      .cls-3 {
        fill: #fff;
      }
    </style>
  </defs>
  <path class="cls-3" d="M39.72,133h95.57c15.14-13.29,24.72-32.77,24.72-54.5,0-40.04-32.46-72.5-72.5-72.5S15,38.46,15,78.5c0,21.73,9.57,41.21,24.72,54.5Z"/>
  <g>
    <path class="cls-1" d="M73.01,122h24.45c3.38,0,6.25-2.49,6.73-5.83l3.7-25.88h-45.3l3.7,25.88c.48,3.35,3.35,5.83,6.73,5.83Z"/>
    <path class="cls-1" d="M60.05,76.7h50.36c1.1,0,2,.9,2,2v11.59h-54.36v-11.59c0-1.1.9-2,2-2Z" transform="translate(170.47 166.99) rotate(180)"/>
    <line class="cls-2" x1="85.23" y1="76.7" x2="85.23" y2="58.58"/>
    <path class="cls-2" d="M85.25,67.63c6.5.16,16.82-1.13,23.68-8,6.87-6.87,8.16-17.19,8-23.68-6.5-.16-16.82,1.13-23.68,8-6.87,6.87-8.16,17.19-8,23.68Z"/>
    <path class="cls-2" d="M85.22,58.57c-5.57.14-14.41-.97-20.3-6.86-5.89-5.89-7-14.73-6.86-20.3,5.57-.14,14.41.97,20.3,6.86,5.89,5.89,7,14.73,6.86,20.3Z"/>
  </g>
</svg>