<?xml version="1.0" encoding="UTF-8"?>
<svg id="Layer_1" data-name="Layer 1" xmlns="http://www.w3.org/2000/svg" viewBox="0 0 175 133">
  <defs>
    <style>
      .cls-1 {
        fill: none;
        stroke: #303f89;
        stroke-linecap: round;
        stroke-linejoin: round;
        stroke-width: 3px;
      }

      .cls-2 {
        fill: #fff;
      }
    </style>
  </defs>
  <path class="cls-2" d="M39.72,133h95.57c15.14-13.29,24.72-32.77,24.72-54.5,0-40.04-32.46-72.5-72.5-72.5S15,38.46,15,78.5c0,21.73,9.57,41.21,24.72,54.5Z"/>
  <g>
    <g>
      <path class="cls-1" d="M48.78,60.36c6.44-.98,6.98,3.38,7.91,7.59.49,2.2,2.56,10.46,2.66,11.22"/>
      <path class="cls-1" d="M87.5,111.05c-.29-5-3-10.07-6.14-14.34-4.16-5.66-10-10.62-12.73-16.91-.97-2.24-1.8-7.38-6.09-6.73-6.16.93-2.25,9.96-.58,13.82,1.54,3.57,3.82,6.23,4.03,10.76.11,2.34.24,4.53,1.09,6.21"/>
      <path class="cls-1" d="M62.62,122c-.37-5.76-14.05-13.18-17.96-27.7-1-3.69-6.41-30.6-3.44-36.54.68-1.36,1.82-2.24,3.59-2.02,3.37.42,3.69,4.6,4.04,6.92,1.03,6.96,1.49,14.13,4.64,20.9,1.35,2.9,3.43,5.57,5.76,8.02,2.33,2.45,4.94,4.76,6.73,7.53"/>
      <path class="cls-1" d="M87.5,111.05c.29-5,3-10.07,6.14-14.34,4.16-5.66,10-10.62,12.73-16.91.97-2.24,1.8-7.38,6.09-6.73,6.16.93,2.25,9.96.58,13.82-1.54,3.57-3.82,6.23-4.03,10.76-.11,2.34-.24,4.53-1.09,6.21"/>
      <path class="cls-1" d="M112.38,122c.37-5.76,14.05-13.18,17.96-27.7,1-3.69,6.41-30.6,3.44-36.54-.68-1.36-1.82-2.24-3.59-2.02-3.37.42-3.69,4.6-4.04,6.92-1.03,6.96-1.49,14.13-4.64,20.9-1.35,2.9-3.43,5.57-5.75,8.02-2.33,2.45-4.94,4.76-6.73,7.53"/>
    </g>
    <line class="cls-1" x1="87.5" y1="111.05" x2="87.5" y2="122"/>
    <path class="cls-1" d="M101.19,31.4c-6.19,0-11.35,4.39-12.55,10.23-1.2-5.84-6.36-10.23-12.56-10.23-7.08,0-12.82,5.74-12.82,12.82s3.66,14.1,7.69,19.56c1.98,2.68,4.33,5.06,6.81,7.28,3.34,2.99,6.83,4.91,10.75,6.97.04.02.09.03.13.05h0s.08-.03.13-.05c3.91-2.06,7.4-3.97,10.75-6.97,2.48-2.22,4.83-4.59,6.81-7.28,4.02-5.46,7.69-12.6,7.69-19.56s-5.74-12.82-12.82-12.82Z"/>
  </g>
</svg>