<?xml version="1.0" encoding="UTF-8"?>
<svg id="Layer_1" data-name="Layer 1" xmlns="http://www.w3.org/2000/svg" viewBox="0 0 50 50">
  <defs>
    <style>
      .cls-1 {
        fill: #fff;
      }

      .cls-2 {
        fill: none;
      }
    </style>
  </defs>
  <g id="Logo">
    <path id="Initiator" class="cls-1" d="M43,25c0-9.94-8.06-18-18-18S7,15.06,7,25c0,8.44,5.81,15.52,13.65,17.47v-11.97h-3.71v-5.5h3.71v-2.37c0-6.13,2.77-8.97,8.79-8.97,1.14,0,3.11.22,3.91.45v4.99c-.42-.04-1.16-.07-2.08-.07-2.95,0-4.09,1.12-4.09,4.02v1.95h5.88l-1.01,5.5h-4.87v12.37c8.91-1.08,15.82-8.67,15.82-17.87Z"/>
    <path id="F" class="cls-2" d="M32.05,30.5l1.01-5.5h-5.88v-1.95c0-2.91,1.14-4.02,4.09-4.02.92,0,1.65.02,2.08.07v-4.99c-.8-.22-2.77-.45-3.91-.45-6.01,0-8.79,2.84-8.79,8.97v2.37h-3.71v5.5h3.71v11.97c1.39.35,2.85.53,4.35.53.74,0,1.47-.05,2.18-.13v-12.37h4.87Z"/>
  </g>
</svg>