<?xml version="1.0" encoding="UTF-8"?>
<svg id="Layer_1" data-name="Layer 1" xmlns="http://www.w3.org/2000/svg" viewBox="0 0 50 50">
  <defs>
    <style>
      .cls-1 {
        fill: #fff;
      }
    </style>
  </defs>
  <path class="cls-1" d="M17.55,7.12c-1.92.09-3.22.4-4.37.85-1.18.46-2.19,1.08-3.18,2.08-1,1-1.61,2.01-2.07,3.19-.44,1.15-.74,2.45-.83,4.37-.08,1.92-.1,2.53-.09,7.42,0,4.89.03,5.5.12,7.42.09,1.91.4,3.22.85,4.37.46,1.18,1.08,2.19,2.08,3.18,1,1,2.01,1.61,3.19,2.07,1.14.44,2.45.74,4.37.83,1.92.08,2.53.1,7.42.09,4.89,0,5.5-.03,7.42-.12,1.92-.09,3.22-.4,4.37-.85,1.18-.46,2.19-1.08,3.18-2.08,1-1,1.61-2.01,2.07-3.19.44-1.14.74-2.45.83-4.37.08-1.92.1-2.53.09-7.42,0-4.89-.03-5.5-.12-7.42-.09-1.92-.4-3.22-.85-4.37-.46-1.18-1.08-2.19-2.08-3.18-1-1-2.01-1.61-3.19-2.07-1.15-.44-2.45-.75-4.37-.83-1.92-.09-2.53-.1-7.42-.09-4.89,0-5.5.03-7.42.12M17.76,39.66c-1.75-.08-2.71-.37-3.34-.61-.84-.33-1.44-.72-2.07-1.34-.63-.63-1.02-1.23-1.35-2.07-.25-.64-.54-1.59-.63-3.34-.09-1.9-.11-2.47-.12-7.27,0-4.81,0-5.37.09-7.27.08-1.75.37-2.71.61-3.34.33-.84.71-1.44,1.34-2.07.63-.63,1.23-1.02,2.07-1.35.63-.25,1.59-.54,3.34-.63,1.9-.09,2.47-.11,7.27-.12,4.81,0,5.38,0,7.27.09,1.75.08,2.71.37,3.34.61.84.33,1.44.71,2.07,1.34.63.63,1.02,1.23,1.35,2.07.25.63.54,1.59.63,3.34.09,1.9.11,2.47.12,7.27,0,4.81,0,5.38-.09,7.27-.08,1.75-.37,2.71-.61,3.34-.33.84-.71,1.44-1.34,2.07-.63.63-1.23,1.02-2.07,1.35-.63.25-1.59.54-3.34.63-1.9.09-2.47.11-7.27.12-4.8,0-5.37,0-7.27-.09M32.43,15.38c0,1.19.97,2.16,2.16,2.15,1.19,0,2.16-.97,2.16-2.16,0-1.19-.97-2.16-2.16-2.16-1.19,0-2.16.97-2.16,2.16M15.76,25.02c0,5.1,4.16,9.23,9.26,9.22,5.1,0,9.24-4.15,9.23-9.26,0-5.1-4.16-9.23-9.26-9.22-5.1,0-9.23,4.16-9.22,9.26M19,25.01c0-3.31,2.68-6,5.99-6.01,3.31,0,6.01,2.67,6.01,5.99,0,3.31-2.68,6-5.99,6.01-3.31,0-6-2.67-6.01-5.99"/>
</svg>