<?xml version="1.0" encoding="UTF-8"?>
<svg id="Layer_1" data-name="Layer 1" xmlns="http://www.w3.org/2000/svg" viewBox="0 0 175 133">
  <defs>
    <style>
      .cls-1 {
        fill: #fff;
      }

      .cls-2 {
        fill: none;
        stroke: #303f89;
        stroke-linejoin: round;
        stroke-width: 3px;
      }
    </style>
  </defs>
  <path class="cls-1" d="M39.72,133h95.57c15.14-13.29,24.72-32.77,24.72-54.5,0-40.04-32.46-72.5-72.5-72.5S15,38.46,15,78.5c0,21.73,9.57,41.21,24.72,54.5Z"/>
  <g>
    <polygon class="cls-2" points="140.71 62.7 87.5 84.09 34.29 62.7 87.5 41.15 140.71 62.7"/>
    <path class="cls-2" d="M87.5,59.63c2.77,0,5.02,1.33,5.02,2.97s-2.25,2.97-5.02,2.97-5.02-1.33-5.02-2.97,2.25-2.97,5.02-2.97Z"/>
    <polyline class="cls-2" points="109.43 83.35 109.43 75.27 91.08 64.68"/>
    <path class="cls-2" d="M109.43,83.35c-2.06,0-3.74,1.67-3.74,3.74v23.31c0,2.07,1.67,3.74,3.74,3.74s3.74-1.67,3.74-3.74v-23.31c0-2.07-1.67-3.74-3.74-3.74Z"/>
    <path class="cls-2" d="M105.69,103.88c-9.91,3.32-26.74,3.68-36.88-.17-7.62-2.9-14.76-6.61-14.76-14.76v-15.32c0-.99.1-1.95.28-2.88"/>
    <path class="cls-2" d="M120.65,70.66c.2.96.3,1.96.3,2.97v15.32c0,5.54-3.27,9.12-7.78,11.69"/>
  </g>
</svg>